<svg xmlns="http://www.w3.org/2000/svg" class="font" viewBox="0 0 114.622 60"><g id="de831f4a-4d52-4eab-a530-0277bd969759" fill="#000"><path d="M4.34 14.13L4.34 14.13Q3.32 14.13 2.53 13.71L2.53 13.71L2.53 13.71Q1.75 13.29 1.32 12.52L1.32 12.52L1.32 12.52Q0.88 11.76 0.88 10.77L0.88 10.77L0.88 7.43L0.88 7.43Q0.88 6.44 1.32 5.68L1.32 5.68L1.32 5.68Q1.75 4.93 2.53 4.51L2.53 4.51L2.53 4.51Q3.32 4.09 4.34 4.09L4.34 4.09L4.34 4.09Q5.38 4.09 6.16 4.51L6.16 4.51L6.16 4.51Q6.94 4.93 7.38 5.68L7.38 5.68L7.38 5.68Q7.81 6.44 7.81 7.43L7.81 7.43L7.81 10.77L7.81 10.77Q7.81 11.76 7.38 12.52L7.38 12.52L7.38 12.52Q6.94 13.29 6.16 13.71L6.16 13.71L6.16 13.71Q5.38 14.13 4.34 14.13L4.34 14.13ZM4.34 12.96L4.34 12.96Q5.29 12.96 5.88 12.38L5.88 12.38L5.88 12.38Q6.47 11.79 6.47 10.82L6.47 10.82L6.47 7.42L6.47 7.42Q6.47 6.44 5.88 5.85L5.88 5.85L5.88 5.85Q5.29 5.25 4.34 5.25L4.34 5.25L4.34 5.25Q3.39 5.25 2.81 5.85L2.81 5.85L2.81 5.85Q2.23 6.44 2.23 7.42L2.23 7.42L2.23 10.82L2.23 10.82Q2.23 11.79 2.81 12.38L2.81 12.38L2.81 12.38Q3.39 12.96 4.34 12.96L4.34 12.96ZM10.58 14L10.58 14Q10.15 14 9.86 13.72L9.86 13.72L9.86 13.72Q9.58 13.44 9.58 13.02L9.58 13.02L9.58 13.02Q9.58 12.63 9.88 12.35L9.88 12.35L9.88 12.35Q10.19 12.07 10.58 12.07L10.58 12.07L10.58 12.07Q10.98 12.07 11.29 12.35L11.29 12.35L11.29 12.35Q11.61 12.63 11.61 13.02L11.61 13.02L11.61 13.02Q11.61 13.43 11.31 13.71L11.31 13.71L11.31 13.71Q11.02 14 10.58 14L10.58 14ZM16.67 14.11L16.67 14.11Q15.62 14.11 14.84 13.78L14.84 13.78L14.84 13.78Q14.06 13.44 13.63 12.82L13.63 12.82L13.63 12.82Q13.20 12.21 13.20 11.38L13.20 11.38L13.20 11.05L13.20 11.05Q13.20 10.95 13.26 10.89L13.26 10.89L13.26 10.89Q13.31 10.84 13.41 10.84L13.41 10.84L14.31 10.84L14.31 10.84Q14.41 10.84 14.46 10.89L14.46 10.89L14.46 10.89Q14.52 10.95 14.52 11.05L14.52 11.05L14.52 11.31L14.52 11.31Q14.52 12.03 15.13 12.49L15.13 12.49L15.13 12.49Q15.75 12.95 16.77 12.95L16.77 12.95L16.77 12.95Q17.74 12.95 18.23 12.54L18.23 12.54L18.23 12.54Q18.72 12.14 18.72 11.48L18.72 11.48L18.72 11.48Q18.72 11.05 18.47 10.74L18.47 10.74L18.47 10.74Q18.21 10.43 17.73 10.17L17.73 10.17L17.73 10.17Q17.25 9.91 16.32 9.55L16.32 9.55L16.32 9.55Q15.30 9.16 14.71 8.83L14.71 8.83L14.71 8.83Q14.11 8.51 13.72 7.99L13.72 7.99L13.72 7.99Q13.33 7.46 13.33 6.66L13.33 6.66L13.33 6.66Q13.33 5.46 14.19 4.77L14.19 4.77L14.19 4.77Q15.05 4.09 16.52 4.09L16.52 4.09L16.52 4.09Q17.56 4.09 18.34 4.44L18.34 4.44L18.34 4.44Q19.12 4.79 19.55 5.42L19.55 5.42L19.55 5.42Q19.98 6.05 19.98 6.87L19.98 6.87L19.98 7.08L19.98 7.08Q19.98 7.18 19.92 7.24L19.92 7.24L19.92 7.24Q19.87 7.29 19.77 7.29L19.77 7.29L18.86 7.29L18.86 7.29Q18.76 7.29 18.70 7.25L18.70 7.25L18.70 7.25Q18.65 7.20 18.65 7.11L18.65 7.11L18.65 6.94L18.65 6.94Q18.65 6.22 18.07 5.73L18.07 5.73L18.07 5.73Q17.49 5.25 16.46 5.25L16.46 5.25L16.46 5.25Q15.60 5.25 15.12 5.61L15.12 5.61L15.12 5.61Q14.64 5.96 14.64 6.64L14.64 6.64L14.64 6.64Q14.64 7.10 14.88 7.39L14.88 7.39L14.88 7.39Q15.12 7.69 15.59 7.92L15.59 7.92L15.59 7.92Q16.06 8.15 17.02 8.51L17.02 8.51L17.02 8.51Q18.02 8.90 18.63 9.23L18.63 9.23L18.63 9.23Q19.25 9.56 19.66 10.10L19.66 10.10L19.66 10.10Q20.06 10.64 20.06 11.44L20.06 11.44L20.06 11.44Q20.06 12.24 19.66 12.84L19.66 12.84L19.66 12.84Q19.25 13.44 18.48 13.78L18.48 13.78L18.48 13.78Q17.71 14.11 16.67 14.11L16.67 14.11Z" transform="matrix(5.976095640236052,0,0,5.976095640236052,-5.258962811491777,-24.442232557282438)"/></g></svg>